grf
version=1
nRows=12
nColumns=37
inDegrees=no
endheader
time	ground_force_1_vx	ground_force_1_vy	ground_force_1_vz	ground_force_1_px	ground_force_1_py	ground_force_1_pz	ground_moment_1_mx	ground_moment_1_my	ground_moment_1_mz	ground_force_2_vx	ground_force_2_vy	ground_force_2_vz	ground_force_2_px	ground_force_2_py	ground_force_2_pz	ground_moment_2_mx	ground_moment_2_my	ground_moment_2_mz	ground_force_3_vx	ground_force_3_vy	ground_force_3_vz	ground_force_3_px	ground_force_3_py	ground_force_3_pz	ground_moment_3_mx	ground_moment_3_my	ground_moment_3_mz	ground_force_4_vx	ground_force_4_vy	ground_force_4_vz	ground_force_4_px	ground_force_4_py	ground_force_4_pz	ground_moment_4_mx	ground_moment_4_my	ground_moment_4_mz
      6.71000000	      0.00000000	     -0.00000000	      0.00000000	      0.00000000	      0.00000000	      0.00000000	      0.00000000	      0.00000000	      0.00000000	     -3.83451152	     48.30714035	   -421.35589600	   -185.71883430	  -1066.84468910	      0.00000000	      0.00000000	     -0.00000000	   -313.77564304	     -8.07119181	    -54.76688314	   -369.73983765	   -181.36951812	   -659.22615890	      0.00000000	      0.00000000	     -0.00000000	  -1535.56579388	      0.00000000	     -0.00000000	      0.00000000	      0.00000000	      0.00000000	      0.00000000	      0.00000000	      0.00000000	      0.00000000
      6.72000000	      0.00000000	     -0.00000000	      0.00000000	      0.00000000	      0.00000000	      0.00000000	      0.00000000	      0.00000000	      0.00000000	     -3.22282314	     46.54211807	   -413.58007812	   -186.35326064	  -1066.79929446	      0.00000000	      0.00000000	     -0.00000000	   -316.74902220	     -7.45482969	    -54.49293071	   -367.98739624	   -182.29627991	   -658.39620173	      0.00000000	      0.00000000	     -0.00000000	  -1690.29223852	      0.00000000	     -0.00000000	      0.00000000	      0.00000000	      0.00000000	      0.00000000	      0.00000000	      0.00000000	      0.00000000
      6.73000000	      0.00000000	     -0.00000000	      0.00000000	      0.00000000	      0.00000000	      0.00000000	      0.00000000	      0.00000000	      0.00000000	     -2.22858095	     46.07874298	   -405.47720337	   -187.42310813	  -1067.47612296	      0.00000000	     -0.00000000	     -0.00000000	   -108.92701159	     -6.12758676	    -53.61614937	   -367.30105591	   -182.98234522	   -658.12981450	      0.00000000	      0.00000000	     -0.00000000	  -1576.01423604	      0.00000000	     -0.00000000	      0.00000000	      0.00000000	      0.00000000	      0.00000000	      0.00000000	      0.00000000	      0.00000000
      6.74000000	      0.00000000	     -0.00000000	      0.00000000	      0.00000000	      0.00000000	      0.00000000	      0.00000000	      0.00000000	      0.00000000	     -2.05533719	     46.15557861	   -398.43539429	   -187.94528035	  -1065.54911886	      0.00000000	      0.00000000	     -0.00000000	   -454.83817539	     -4.78528724	    -52.99639469	   -366.58911133	   -183.85253600	   -660.04000485	      0.00000000	      0.00000000	     -0.00000000	  -1433.25335205	      0.00000000	     -0.00000000	      0.00000000	      0.00000000	      0.00000000	      0.00000000	      0.00000000	      0.00000000	      0.00000000
      6.75000000	      0.00000000	     -0.00000000	      0.00000000	      0.00000000	      0.00000000	      0.00000000	      0.00000000	      0.00000000	      0.00000000	     -2.32490468	     45.28005219	   -394.46618652	   -188.35532097	  -1065.39050314	      0.00000000	      0.00000000	     -0.00000000	   -331.28540083	     -3.55372317	    -52.63621490	   -367.64974976	   -186.19547753	   -659.38550114	      0.00000000	      0.00000000	     -0.00000000	  -1704.37841247	      0.00000000	     -0.00000000	      0.00000000	      0.00000000	      0.00000000	      0.00000000	      0.00000000	      0.00000000	      0.00000000
      6.76000000	      0.00000000	     -0.00000000	      0.00000000	      0.00000000	      0.00000000	      0.00000000	      0.00000000	      0.00000000	      0.00000000	     -1.69877100	     44.47418976	   -390.26385498	   -189.16694137	  -1066.56030661	      0.00000000	      0.00000000	     -0.00000000	   -115.43768006	     -3.37101436	    -51.85580796	   -367.99133301	   -186.59929230	   -660.84265393	      0.00000000	      0.00000000	     -0.00000000	  -1702.44075180	      0.00000000	     -0.00000000	      0.00000000	      0.00000000	      0.00000000	      0.00000000	      0.00000000	      0.00000000	      0.00000000
      6.77000000	      0.00000000	     -0.00000000	      0.00000000	      0.00000000	      0.00000000	      0.00000000	      0.00000000	      0.00000000	      0.00000000	     -1.77055001	     44.02651978	   -385.68792725	   -188.94713323	  -1064.51423325	      0.00000000	      0.00000000	     -0.00000000	   -419.08966766	     -3.20120311	    -51.84104510	   -367.33743286	   -187.16775061	   -661.41270546	      0.00000000	      0.00000000	     -0.00000000	  -1617.27486189	      0.00000000	     -0.00000000	      0.00000000	      0.00000000	      0.00000000	      0.00000000	      0.00000000	      0.00000000	      0.00000000
      6.78000000	      0.00000000	     -0.00000000	      0.00000000	      0.00000000	      0.00000000	      0.00000000	      0.00000000	      0.00000000	      0.00000000	     -1.95249701	     43.76100540	   -384.97415161	   -190.75104585	  -1064.38678396	      0.00000000	      0.00000000	     -0.00000000	   -417.72797958	     -2.92746037	    -51.14810537	   -368.01358032	   -188.41921771	   -661.82222853	      0.00000000	      0.00000000	     -0.00000000	  -1549.45828860	      0.00000000	     -0.00000000	      0.00000000	      0.00000000	      0.00000000	      0.00000000	      0.00000000	      0.00000000	      0.00000000
      6.79000000	      0.00000000	     -0.00000000	      0.00000000	      0.00000000	      0.00000000	      0.00000000	      0.00000000	      0.00000000	      0.00000000	     -1.51657867	     43.22406769	   -384.26803589	   -192.03119421	  -1064.45324740	      0.00000000	      0.00000000	     -0.00000000	   -299.52957393	     -2.92337441	    -51.74837087	   -369.09347534	   -189.38529734	   -662.19295396	      0.00000000	      0.00000000	     -0.00000000	  -1415.81991157	      0.00000000	     -0.00000000	      0.00000000	      0.00000000	      0.00000000	      0.00000000	      0.00000000	      0.00000000	      0.00000000
      6.80000000	      0.00000000	     -0.00000000	      0.00000000	      0.00000000	      0.00000000	      0.00000000	      0.00000000	      0.00000000	      0.00000000	     -1.68852425	     43.15420914	   -384.62152100	   -192.76434528	  -1065.25759172	      0.00000000	      0.00000000	     -0.00000000	   -253.32814843	     -2.57472561	    -51.59035851	   -373.19329834	   -190.99884406	   -661.58590309	      0.00000000	      0.00000000	     -0.00000000	  -1471.81906195	      0.00000000	     -0.00000000	      0.00000000	      0.00000000	      0.00000000	      0.00000000	      0.00000000	      0.00000000	      0.00000000
      6.81000000	      0.00000000	     -0.00000000	      0.00000000	      0.00000000	      0.00000000	      0.00000000	      0.00000000	      0.00000000	      0.00000000	     -1.15526891	     43.12125778	   -386.67898560	   -195.06895793	  -1066.08468334	      0.00000000	      0.00000000	     -0.00000000	   -220.32247742	     -2.13779687	    -51.65949612	   -373.92422485	   -191.46889038	   -662.09618611	      0.00000000	      0.00000000	     -0.00000000	  -1491.41753727	      0.00000000	     -0.00000000	      0.00000000	      0.00000000	      0.00000000	      0.00000000	      0.00000000	      0.00000000	      0.00000000
      6.82000000	      0.00000000	     -0.00000000	      0.00000000	      0.00000000	      0.00000000	      0.00000000	      0.00000000	      0.00000000	      0.00000000	     -1.77961731	     43.57100296	   -386.01660156	   -195.00036683	  -1064.32363559	      0.00000000	      0.00000000	     -0.00000000	   -280.61452468	     -2.55912419	    -51.33057763	   -376.02746582	   -192.77086878	   -662.78350200	      0.00000000	      0.00000000	     -0.00000000	  -1528.25947816	      0.00000000	     -0.00000000	      0.00000000	      0.00000000	      0.00000000	      0.00000000	      0.00000000	      0.00000000	      0.00000000
